<?xml version="1.0" encoding="UTF-8" standalone="no"?>
<!DOCTYPE svg PUBLIC "-//W3C//DTD SVG 1.1//EN"
 "http://www.w3.org/Graphics/SVG/1.1/DTD/svg11.dtd">
<!-- Generated by graphviz version 2.43.0 (0)
 -->
<!-- Title: gdp Pages: 1 -->
<svg width="1551pt" height="1285pt"
 viewBox="0.00 0.00 1551.00 1284.58" xmlns="http://www.w3.org/2000/svg" xmlns:xlink="http://www.w3.org/1999/xlink">
<g id="graph0" class="graph" transform="scale(1 1) rotate(0) translate(4 1280.58)">
<title>gdp</title>
<polygon fill="white" stroke="transparent" points="-4,4 -4,-1280.58 1547,-1280.58 1547,4 -4,4"/>
<!-- KP -->
<g id="node1" class="node">
<title>KP</title>
<path fill="none" stroke="black" d="M771,-1201.31C771,-1203.11 758.9,-1204.58 744,-1204.58 729.1,-1204.58 717,-1203.11 717,-1201.31 717,-1201.31 717,-1171.85 717,-1171.85 717,-1170.04 729.1,-1168.58 744,-1168.58 758.9,-1168.58 771,-1170.04 771,-1171.85 771,-1171.85 771,-1201.31 771,-1201.31"/>
<path fill="none" stroke="black" d="M771,-1201.31C771,-1199.5 758.9,-1198.03 744,-1198.03 729.1,-1198.03 717,-1199.5 717,-1201.31"/>
<text text-anchor="middle" x="744" y="-1182.88" font-family="Times,serif" font-size="14.00">KP</text>
</g>
<!-- IP -->
<g id="node9" class="node">
<title>IP</title>
<polygon fill="none" stroke="black" points="681,-1126.58 645,-1126.58 645,-1096.58 663,-1096.58 663,-1102.58 681,-1102.58 681,-1096.58 699,-1114.58 681,-1132.58 681,-1126.58"/>
<text text-anchor="middle" x="672" y="-1110.88" font-family="Times,serif" font-size="14.00">IP</text>
</g>
<!-- KP&#45;&gt;IP -->
<g id="edge3" class="edge">
<title>KP&#45;&gt;IP</title>
<path fill="none" stroke="black" d="M721.5,-1169.34C711.61,-1160.67 700.23,-1149.83 690.8,-1140.15"/>
<polygon fill="black" stroke="black" points="693.14,-1137.54 683.72,-1132.7 688.07,-1142.36 693.14,-1137.54"/>
</g>
<!-- Yp -->
<g id="node14" class="node">
<title>Yp</title>
<polygon fill="none" stroke="black" points="858,-721.19 822,-721.19 822,-691.19 840,-691.19 840,-697.19 858,-697.19 858,-691.19 876,-709.19 858,-727.19 858,-721.19"/>
<text text-anchor="middle" x="849" y="-705.49" font-family="Times,serif" font-size="14.00">Yp</text>
</g>
<!-- KP&#45;&gt;Yp -->
<g id="edge32" class="edge">
<title>KP&#45;&gt;Yp</title>
<path fill="none" stroke="black" d="M771.18,-1183.8C875.31,-1176.24 1243,-1142.54 1243,-1043.58 1243,-1043.58 1243,-1043.58 1243,-863.53 1243,-800.26 1198.11,-792.44 1142,-763.19 1058.07,-719.43 944.31,-711.15 886.33,-709.99"/>
<polygon fill="black" stroke="black" points="886.22,-706.49 876.17,-709.85 886.12,-713.49 886.22,-706.49"/>
</g>
<!-- KP_1 -->
<g id="node2" class="node">
<title>KP_1</title>
<path fill="none" stroke="black" d="M771,-1273.31C771,-1275.11 758.9,-1276.58 744,-1276.58 729.1,-1276.58 717,-1275.11 717,-1273.31 717,-1273.31 717,-1243.85 717,-1243.85 717,-1242.04 729.1,-1240.58 744,-1240.58 758.9,-1240.58 771,-1242.04 771,-1243.85 771,-1243.85 771,-1273.31 771,-1273.31"/>
<path fill="none" stroke="black" d="M771,-1273.31C771,-1271.5 758.9,-1270.03 744,-1270.03 729.1,-1270.03 717,-1271.5 717,-1273.31"/>
<text text-anchor="middle" x="744" y="-1254.88" font-family="Times,serif" font-size="14.00">KP_1</text>
</g>
<!-- KP_1&#45;&gt;KP -->
<g id="edge30" class="edge">
<title>KP_1&#45;&gt;KP</title>
<path fill="none" stroke="black" d="M744,-1240.27C744,-1232.56 744,-1223.29 744,-1214.69"/>
<polygon fill="black" stroke="black" points="747.5,-1214.68 744,-1204.68 740.5,-1214.68 747.5,-1214.68"/>
</g>
<!-- POP -->
<g id="node3" class="node">
<title>POP</title>
<path fill="none" stroke="black" d="M983,-879.26C983,-881.07 970.9,-882.53 956,-882.53 941.1,-882.53 929,-881.07 929,-879.26 929,-879.26 929,-849.81 929,-849.81 929,-848 941.1,-846.53 956,-846.53 970.9,-846.53 983,-848 983,-849.81 983,-849.81 983,-879.26 983,-879.26"/>
<path fill="none" stroke="black" d="M983,-879.26C983,-877.46 970.9,-875.99 956,-875.99 941.1,-875.99 929,-877.46 929,-879.26"/>
<text text-anchor="middle" x="956" y="-860.83" font-family="Times,serif" font-size="14.00">POP</text>
</g>
<!-- L_s -->
<g id="node15" class="node">
<title>L_s</title>
<polygon fill="none" stroke="black" points="1040,-793.19 1004,-793.19 1004,-763.19 1022,-763.19 1022,-769.19 1040,-769.19 1040,-763.19 1058,-781.19 1040,-799.19 1040,-793.19"/>
<text text-anchor="middle" x="1031" y="-777.49" font-family="Times,serif" font-size="14.00">L_s</text>
</g>
<!-- POP&#45;&gt;L_s -->
<g id="edge46" class="edge">
<title>POP&#45;&gt;L_s</title>
<path fill="none" stroke="black" d="M971.91,-846.28C982.45,-834.85 996.44,-819.67 1008.16,-806.96"/>
<polygon fill="black" stroke="black" points="1010.91,-809.14 1015.12,-799.41 1005.77,-804.39 1010.91,-809.14"/>
</g>
<!-- POP65 -->
<g id="node4" class="node">
<title>POP65</title>
<path fill="none" stroke="black" d="M1138.5,-879.26C1138.5,-881.07 1123.93,-882.53 1106,-882.53 1088.07,-882.53 1073.5,-881.07 1073.5,-879.26 1073.5,-879.26 1073.5,-849.81 1073.5,-849.81 1073.5,-848 1088.07,-846.53 1106,-846.53 1123.93,-846.53 1138.5,-848 1138.5,-849.81 1138.5,-849.81 1138.5,-879.26 1138.5,-879.26"/>
<path fill="none" stroke="black" d="M1138.5,-879.26C1138.5,-877.46 1123.93,-875.99 1106,-875.99 1088.07,-875.99 1073.5,-877.46 1073.5,-879.26"/>
<text text-anchor="middle" x="1106" y="-860.83" font-family="Times,serif" font-size="14.00">POP65</text>
</g>
<!-- POP65&#45;&gt;L_s -->
<g id="edge47" class="edge">
<title>POP65&#45;&gt;L_s</title>
<path fill="none" stroke="black" d="M1090.09,-846.28C1079.55,-834.85 1065.56,-819.67 1053.84,-806.96"/>
<polygon fill="black" stroke="black" points="1056.23,-804.39 1046.88,-799.41 1051.09,-809.14 1056.23,-804.39"/>
</g>
<!-- SB -->
<g id="node28" class="node">
<title>SB</title>
<polygon fill="none" stroke="black" points="1115,-793.19 1079,-793.19 1079,-763.19 1097,-763.19 1097,-769.19 1115,-769.19 1115,-763.19 1133,-781.19 1115,-799.19 1115,-793.19"/>
<text text-anchor="middle" x="1106" y="-777.49" font-family="Times,serif" font-size="14.00">SB</text>
</g>
<!-- POP65&#45;&gt;SB -->
<g id="edge66" class="edge">
<title>POP65&#45;&gt;SB</title>
<path fill="none" stroke="black" d="M1106,-846.28C1106,-835.61 1106,-821.66 1106,-809.51"/>
<polygon fill="black" stroke="black" points="1109.5,-809.41 1106,-799.41 1102.5,-809.41 1109.5,-809.41"/>
</g>
<!-- NW -->
<g id="node5" class="node">
<title>NW</title>
<path fill="none" stroke="black" d="M75,-1201.31C75,-1203.11 62.9,-1204.58 48,-1204.58 33.1,-1204.58 21,-1203.11 21,-1201.31 21,-1201.31 21,-1171.85 21,-1171.85 21,-1170.04 33.1,-1168.58 48,-1168.58 62.9,-1168.58 75,-1170.04 75,-1171.85 75,-1171.85 75,-1201.31 75,-1201.31"/>
<path fill="none" stroke="black" d="M75,-1201.31C75,-1199.5 62.9,-1198.03 48,-1198.03 33.1,-1198.03 21,-1199.5 21,-1201.31"/>
<text text-anchor="middle" x="48" y="-1182.88" font-family="Times,serif" font-size="14.00">NW</text>
</g>
<!-- C -->
<g id="node8" class="node">
<title>C</title>
<polygon fill="none" stroke="black" points="102,-1126.58 66,-1126.58 66,-1096.58 84,-1096.58 84,-1102.58 102,-1102.58 102,-1096.58 120,-1114.58 102,-1132.58 102,-1126.58"/>
<text text-anchor="middle" x="93" y="-1110.88" font-family="Times,serif" font-size="14.00">C</text>
</g>
<!-- NW&#45;&gt;C -->
<g id="edge1" class="edge">
<title>NW&#45;&gt;C</title>
<path fill="none" stroke="black" d="M59.12,-1168.27C64.36,-1160.14 70.7,-1150.27 76.48,-1141.28"/>
<polygon fill="black" stroke="black" points="79.54,-1142.99 82,-1132.68 73.65,-1139.2 79.54,-1142.99"/>
</g>
<!-- IH -->
<g id="node10" class="node">
<title>IH</title>
<polygon fill="none" stroke="black" points="164,-246 128,-246 128,-216 146,-216 146,-222 164,-222 164,-216 182,-234 164,-252 164,-246"/>
<text text-anchor="middle" x="155" y="-230.3" font-family="Times,serif" font-size="14.00">IH</text>
</g>
<!-- NW&#45;&gt;IH -->
<g id="edge9" class="edge">
<title>NW&#45;&gt;IH</title>
<path fill="none" stroke="black" d="M46.02,-1168.56C43.11,-1141.93 38,-1088.8 38,-1043.58 38,-1043.58 38,-1043.58 38,-387.8 38,-332.59 86.75,-284.98 121.32,-258.18"/>
<polygon fill="black" stroke="black" points="123.45,-260.95 129.32,-252.13 119.23,-255.36 123.45,-260.95"/>
</g>
<!-- PS -->
<g id="node6" class="node">
<title>PS</title>
<path fill="none" stroke="black" d="M699,-1201.31C699,-1203.11 686.9,-1204.58 672,-1204.58 657.1,-1204.58 645,-1203.11 645,-1201.31 645,-1201.31 645,-1171.85 645,-1171.85 645,-1170.04 657.1,-1168.58 672,-1168.58 686.9,-1168.58 699,-1170.04 699,-1171.85 699,-1171.85 699,-1201.31 699,-1201.31"/>
<path fill="none" stroke="black" d="M699,-1201.31C699,-1199.5 686.9,-1198.03 672,-1198.03 657.1,-1198.03 645,-1199.5 645,-1201.31"/>
<text text-anchor="middle" x="672" y="-1182.88" font-family="Times,serif" font-size="14.00">PS</text>
</g>
<!-- PS&#45;&gt;IP -->
<g id="edge4" class="edge">
<title>PS&#45;&gt;IP</title>
<path fill="none" stroke="black" d="M672,-1168.27C672,-1160.56 672,-1151.29 672,-1142.69"/>
<polygon fill="black" stroke="black" points="675.5,-1142.68 672,-1132.68 668.5,-1142.68 675.5,-1142.68"/>
</g>
<!-- M_s -->
<g id="node7" class="node">
<title>M_s</title>
<path fill="none" stroke="black" d="M526,-973.96C526,-975.76 513.9,-977.23 499,-977.23 484.1,-977.23 472,-975.76 472,-973.96 472,-973.96 472,-944.5 472,-944.5 472,-942.7 484.1,-941.23 499,-941.23 513.9,-941.23 526,-942.7 526,-944.5 526,-944.5 526,-973.96 526,-973.96"/>
<path fill="none" stroke="black" d="M526,-973.96C526,-972.15 513.9,-970.68 499,-970.68 484.1,-970.68 472,-972.15 472,-973.96"/>
<text text-anchor="middle" x="499" y="-955.53" font-family="Times,serif" font-size="14.00">M_s</text>
</g>
<!-- P -->
<g id="node42" class="node">
<title>P</title>
<polygon fill="white" stroke="black" points="657,-876.03 603,-876.03 603,-873.48 600.44,-873.48 600.44,-870.92 603,-870.92 603,-858.15 600.44,-858.15 600.44,-855.59 603,-855.59 603,-853.03 657,-853.03 657,-876.03"/>
<polyline fill="none" stroke="black" points="603,-873.48 605.56,-873.48 605.56,-870.92 603,-870.92 "/>
<polyline fill="none" stroke="black" points="603,-858.15 605.56,-858.15 605.56,-855.59 603,-855.59 "/>
<text text-anchor="middle" x="630" y="-860.83" font-family="Times,serif" font-size="14.00">P</text>
</g>
<!-- M_s&#45;&gt;P -->
<g id="edge34" class="edge">
<title>M_s&#45;&gt;P</title>
<path fill="none" stroke="black" d="M511.36,-941.19C515.96,-937.4 521.12,-933.45 526,-929.88 549.54,-912.68 577.21,-894.12 598.28,-881.37"/>
<polygon fill="black" stroke="black" points="600.34,-884.22 607.16,-876.12 596.77,-878.19 600.34,-884.22"/>
</g>
<!-- dP -->
<g id="node46" class="node">
<title>dP</title>
<polygon fill="white" stroke="black" points="450,-550.09 396,-550.09 396,-547.54 393.44,-547.54 393.44,-544.98 396,-544.98 396,-532.2 393.44,-532.2 393.44,-529.65 396,-529.65 396,-527.09 450,-527.09 450,-550.09"/>
<polyline fill="none" stroke="black" points="396,-547.54 398.56,-547.54 398.56,-544.98 396,-544.98 "/>
<polyline fill="none" stroke="black" points="396,-532.2 398.56,-532.2 398.56,-529.65 396,-529.65 "/>
<text text-anchor="middle" x="423" y="-534.89" font-family="Times,serif" font-size="14.00">dP</text>
</g>
<!-- M_s&#45;&gt;dP -->
<g id="edge35" class="edge">
<title>M_s&#45;&gt;dP</title>
<path fill="none" stroke="black" d="M490.41,-941.18C484.36,-928.46 476.54,-910.47 472,-893.88 454.48,-829.91 432.08,-625.97 425.14,-560.23"/>
<polygon fill="black" stroke="black" points="428.62,-559.84 424.1,-550.26 421.66,-560.57 428.62,-559.84"/>
</g>
<!-- C&#45;&gt;IH -->
<g id="edge10" class="edge">
<title>C&#45;&gt;IH</title>
<path fill="none" stroke="black" d="M94.47,-1096.57C96.78,-1068.3 101,-1009.82 101,-960.23 101,-960.23 101,-960.23 101,-387.8 101,-341.08 123.71,-290.69 139.68,-261.04"/>
<polygon fill="black" stroke="black" points="142.81,-262.62 144.59,-252.18 136.68,-259.23 142.81,-262.62"/>
</g>
<!-- M -->
<g id="node12" class="node">
<title>M</title>
<polygon fill="none" stroke="black" points="825,-174 789,-174 789,-144 807,-144 807,-150 825,-150 825,-144 843,-162 825,-180 825,-174"/>
<text text-anchor="middle" x="816" y="-158.3" font-family="Times,serif" font-size="14.00">M</text>
</g>
<!-- C&#45;&gt;M -->
<g id="edge17" class="edge">
<title>C&#45;&gt;M</title>
<path fill="none" stroke="black" d="M73.73,-1096.32C46.49,-1069.91 0,-1016.59 0,-960.23 0,-960.23 0,-960.23 0,-309 0,-241.88 56.41,-240.25 119,-216 240.91,-168.77 651.37,-163.5 778.29,-163.01"/>
<polygon fill="black" stroke="black" points="778.66,-166.51 788.65,-162.98 778.64,-159.51 778.66,-166.51"/>
</g>
<!-- Y -->
<g id="node13" class="node">
<title>Y</title>
<polygon fill="none" stroke="black" points="508,-1054.58 472,-1054.58 472,-1024.58 490,-1024.58 490,-1030.58 508,-1030.58 508,-1024.58 526,-1042.58 508,-1060.58 508,-1054.58"/>
<text text-anchor="middle" x="499" y="-1038.88" font-family="Times,serif" font-size="14.00">Y</text>
</g>
<!-- C&#45;&gt;Y -->
<g id="edge24" class="edge">
<title>C&#45;&gt;Y</title>
<path fill="none" stroke="black" d="M120.27,-1108.88C191.05,-1096.67 380.75,-1063.97 461.63,-1050.02"/>
<polygon fill="black" stroke="black" points="462.59,-1053.41 471.85,-1048.26 461.4,-1046.51 462.59,-1053.41"/>
</g>
<!-- IP&#45;&gt;KP -->
<g id="edge31" class="edge">
<title>IP&#45;&gt;KP</title>
<path fill="none" stroke="black" d="M695.49,-1132.68C705.06,-1141.13 715.91,-1151.48 724.98,-1160.78"/>
<polygon fill="black" stroke="black" points="722.69,-1163.45 732.12,-1168.27 727.76,-1158.62 722.69,-1163.45"/>
</g>
<!-- IP&#45;&gt;M -->
<g id="edge18" class="edge">
<title>IP&#45;&gt;M</title>
<path fill="none" stroke="black" d="M644.97,-1112.15C567.53,-1107.71 346.25,-1092.5 282,-1060.58 225.61,-1032.56 182,-1023.19 182,-960.23 182,-960.23 182,-960.23 182,-467.34 182,-333.72 228.13,-277.05 347,-216 422.26,-177.34 681.29,-166.57 778.63,-163.84"/>
<polygon fill="black" stroke="black" points="778.97,-167.33 788.88,-163.57 778.79,-160.34 778.97,-167.33"/>
</g>
<!-- IP&#45;&gt;Y -->
<g id="edge25" class="edge">
<title>IP&#45;&gt;Y</title>
<path fill="none" stroke="black" d="M644.97,-1102.64C615.6,-1090.76 568.51,-1071.7 535.78,-1058.46"/>
<polygon fill="black" stroke="black" points="536.71,-1055.06 526.13,-1054.55 534.08,-1061.55 536.71,-1055.06"/>
</g>
<!-- IH&#45;&gt;M -->
<g id="edge19" class="edge">
<title>IH&#45;&gt;M</title>
<path fill="none" stroke="black" d="M182.15,-227.11C199.72,-223.47 223.13,-218.95 244,-216 444.66,-187.61 687.16,-170.9 778.65,-165.21"/>
<polygon fill="black" stroke="black" points="779.03,-168.69 788.8,-164.59 778.6,-161.71 779.03,-168.69"/>
</g>
<!-- IH&#45;&gt;Y -->
<g id="edge26" class="edge">
<title>IH&#45;&gt;Y</title>
<path fill="none" stroke="black" d="M176.84,-252.18C207.08,-278.07 258,-330.21 258,-387.8 258,-865.53 258,-865.53 258,-865.53 258,-921.25 243.54,-948.27 282,-988.58 306.46,-1014.21 406.55,-1030.25 461.85,-1037.34"/>
<polygon fill="black" stroke="black" points="461.6,-1040.83 471.95,-1038.6 462.46,-1033.89 461.6,-1040.83"/>
</g>
<!-- X -->
<g id="node11" class="node">
<title>X</title>
<polygon fill="none" stroke="black" points="968,-246 932,-246 932,-216 950,-216 950,-222 968,-222 968,-216 986,-234 968,-252 968,-246"/>
<text text-anchor="middle" x="959" y="-230.3" font-family="Times,serif" font-size="14.00">X</text>
</g>
<!-- X&#45;&gt;IP -->
<g id="edge5" class="edge">
<title>X&#45;&gt;IP</title>
<path fill="none" stroke="black" d="M986.27,-238.81C1050.32,-249.46 1205,-285.74 1205,-387.8 1205,-960.23 1205,-960.23 1205,-960.23 1205,-1063.51 830.71,-1101.38 709.44,-1110.94"/>
<polygon fill="black" stroke="black" points="708.87,-1107.47 699.16,-1111.73 709.4,-1114.45 708.87,-1107.47"/>
</g>
<!-- X&#45;&gt;M -->
<g id="edge20" class="edge">
<title>X&#45;&gt;M</title>
<path fill="none" stroke="black" d="M931.77,-219.67C909.2,-208.62 876.95,-192.83 852.21,-180.72"/>
<polygon fill="black" stroke="black" points="853.65,-177.53 843.13,-176.28 850.58,-183.82 853.65,-177.53"/>
</g>
<!-- X&#45;&gt;Y -->
<g id="edge27" class="edge">
<title>X&#45;&gt;Y</title>
<path fill="none" stroke="black" d="M986.19,-241.31C1042.57,-256.19 1167,-299.08 1167,-387.8 1167,-865.53 1167,-865.53 1167,-865.53 1167,-921.52 1182.14,-951.72 1140,-988.58 1094.47,-1028.4 666.88,-1038.78 536.54,-1041.03"/>
<polygon fill="black" stroke="black" points="536.2,-1037.53 526.26,-1041.2 536.32,-1044.53 536.2,-1037.53"/>
</g>
<!-- BC -->
<g id="node17" class="node">
<title>BC</title>
<polygon fill="none" stroke="black" points="913,-102 877,-102 877,-72 895,-72 895,-78 913,-78 913,-72 931,-90 913,-108 913,-102"/>
<text text-anchor="middle" x="904" y="-86.3" font-family="Times,serif" font-size="14.00">BC</text>
</g>
<!-- X&#45;&gt;BC -->
<g id="edge90" class="edge">
<title>X&#45;&gt;BC</title>
<path fill="none" stroke="black" d="M952.37,-215.87C942.91,-191.46 925.47,-146.43 914.32,-117.64"/>
<polygon fill="black" stroke="black" points="917.53,-116.25 910.66,-108.19 911.01,-118.78 917.53,-116.25"/>
</g>
<!-- M&#45;&gt;Y -->
<g id="edge28" class="edge">
<title>M&#45;&gt;Y</title>
<path fill="none" stroke="black" d="M788.77,-164.68C681.78,-172.01 296,-205.62 296,-309 296,-865.53 296,-865.53 296,-865.53 296,-923.18 296.13,-947.93 337,-988.58 370.51,-1021.91 425.28,-1034.28 461.72,-1038.87"/>
<polygon fill="black" stroke="black" points="461.61,-1042.38 471.94,-1040.02 462.39,-1035.42 461.61,-1042.38"/>
</g>
<!-- M&#45;&gt;BC -->
<g id="edge91" class="edge">
<title>M&#45;&gt;BC</title>
<path fill="none" stroke="black" d="M837.75,-143.7C848.84,-134.88 862.47,-124.03 874.49,-114.47"/>
<polygon fill="black" stroke="black" points="876.85,-117.07 882.5,-108.1 872.49,-111.59 876.85,-117.07"/>
</g>
<!-- Y&#45;&gt;M_s -->
<g id="edge74" class="edge">
<title>Y&#45;&gt;M_s</title>
<path fill="none" stroke="black" d="M499,-1024.33C499,-1013.65 499,-999.7 499,-987.55"/>
<polygon fill="black" stroke="black" points="502.5,-987.46 499,-977.46 495.5,-987.46 502.5,-987.46"/>
</g>
<!-- TI -->
<g id="node32" class="node">
<title>TI</title>
<polygon fill="yellow" stroke="black" points="896,-793.19 860,-793.19 860,-763.19 878,-763.19 878,-769.19 896,-769.19 896,-763.19 914,-781.19 896,-799.19 896,-793.19"/>
<text text-anchor="middle" x="887" y="-777.49" font-family="Times,serif" font-size="14.00">TI</text>
</g>
<!-- Y&#45;&gt;TI -->
<g id="edge63" class="edge">
<title>Y&#45;&gt;TI</title>
<path fill="none" stroke="black" d="M526.36,-1041.33C639.91,-1040 1070.06,-1032.13 1110,-988.58 1222.65,-865.73 1012.19,-977.29 920,-893.88 896.38,-872.52 889.34,-835.16 887.41,-809.58"/>
<polygon fill="black" stroke="black" points="890.89,-809.22 886.86,-799.42 883.9,-809.59 890.89,-809.22"/>
</g>
<!-- GAP -->
<g id="node40" class="node">
<title>GAP</title>
<ellipse fill="white" stroke="black" cx="617" cy="-620.64" rx="30.59" ry="30.59"/>
<ellipse fill="none" stroke="black" cx="617" cy="-620.64" rx="34.59" ry="34.59"/>
<text text-anchor="middle" x="617" y="-616.94" font-family="Times,serif" font-size="14.00">GAP</text>
</g>
<!-- Y&#45;&gt;GAP -->
<g id="edge44" class="edge">
<title>Y&#45;&gt;GAP</title>
<path fill="none" stroke="black" d="M471.8,-1036.66C445.97,-1030.38 408.56,-1016.76 391,-988.58 377.2,-966.44 382.88,-954.67 391,-929.88 429.46,-812.37 531.67,-702.62 584.45,-651.59"/>
<polygon fill="black" stroke="black" points="587.06,-653.93 591.86,-644.49 582.22,-648.88 587.06,-653.93"/>
</g>
<!-- Y&#45;&gt;P -->
<g id="edge36" class="edge">
<title>Y&#45;&gt;P</title>
<path fill="none" stroke="black" d="M526.06,-1035.64C551.04,-1028.71 587.16,-1014.69 607,-988.58 629.78,-958.6 632.26,-912.84 631.48,-886.39"/>
<polygon fill="black" stroke="black" points="634.98,-886.17 631,-876.34 627.98,-886.5 634.98,-886.17"/>
</g>
<!-- Y&#45;&gt;dP -->
<g id="edge37" class="edge">
<title>Y&#45;&gt;dP</title>
<path fill="none" stroke="black" d="M471.79,-1036.09C444.81,-1029.31 403.99,-1015.26 379,-988.58 339.19,-946.08 334,-923.76 334,-865.53 334,-865.53 334,-865.53 334,-708.19 334,-647.64 379.45,-587.53 405.39,-558.15"/>
<polygon fill="black" stroke="black" points="408.31,-560.14 412.44,-550.38 403.13,-555.44 408.31,-560.14"/>
</g>
<!-- i_s -->
<g id="node34" class="node">
<title>i_s</title>
<ellipse fill="white" stroke="black" cx="661" cy="-468.34" rx="23" ry="23"/>
<text text-anchor="middle" x="661" y="-464.64" font-family="Times,serif" font-size="14.00">i_s</text>
</g>
<!-- Yp&#45;&gt;i_s -->
<g id="edge77" class="edge">
<title>Yp&#45;&gt;i_s</title>
<path fill="none" stroke="black" d="M835.48,-691.01C802.77,-649.45 719.23,-543.32 680.84,-494.55"/>
<polygon fill="black" stroke="black" points="683.59,-492.38 674.65,-486.69 678.09,-496.71 683.59,-492.38"/>
</g>
<!-- Yp&#45;&gt;GAP -->
<g id="edge45" class="edge">
<title>Yp&#45;&gt;GAP</title>
<path fill="none" stroke="black" d="M821.93,-698.09C781.76,-683.1 706.02,-654.85 658.72,-637.2"/>
<polygon fill="black" stroke="black" points="659.68,-633.82 649.08,-633.61 657.23,-640.38 659.68,-633.82"/>
</g>
<!-- L_s&#45;&gt;Yp -->
<g id="edge33" class="edge">
<title>L_s&#45;&gt;Yp</title>
<path fill="none" stroke="black" d="M1003.99,-767.1C1000.98,-765.74 997.93,-764.41 995,-763.19 958.32,-747.91 915.5,-732.66 885.76,-722.47"/>
<polygon fill="black" stroke="black" points="886.79,-719.12 876.2,-719.21 884.54,-725.75 886.79,-719.12"/>
</g>
<!-- L_D -->
<g id="node16" class="node">
<title>L_D</title>
<polygon fill="none" stroke="black" points="968,-793.19 932,-793.19 932,-763.19 950,-763.19 950,-769.19 968,-769.19 968,-763.19 986,-781.19 968,-799.19 968,-793.19"/>
<text text-anchor="middle" x="959" y="-777.49" font-family="Times,serif" font-size="14.00">L_D</text>
</g>
<!-- BK -->
<g id="node18" class="node">
<title>BK</title>
<polygon fill="none" stroke="black" points="913,-30 877,-30 877,0 895,0 895,-6 913,-6 913,0 931,-18 913,-36 913,-30"/>
<text text-anchor="middle" x="904" y="-14.3" font-family="Times,serif" font-size="14.00">BK</text>
</g>
<!-- BC&#45;&gt;BK -->
<g id="edge95" class="edge">
<title>BC&#45;&gt;BK</title>
<path fill="none" stroke="black" d="M904,-71.7C904,-63.98 904,-54.71 904,-46.11"/>
<polygon fill="black" stroke="black" points="907.5,-46.1 904,-36.1 900.5,-46.1 907.5,-46.1"/>
</g>
<!-- CG -->
<g id="node19" class="node">
<title>CG</title>
<polygon fill="none" stroke="black" points="1453,-1198.58 1417,-1198.58 1417,-1168.58 1435,-1168.58 1435,-1174.58 1453,-1174.58 1453,-1168.58 1471,-1186.58 1453,-1204.58 1453,-1198.58"/>
<text text-anchor="middle" x="1444" y="-1182.88" font-family="Times,serif" font-size="14.00">CG</text>
</g>
<!-- G -->
<g id="node26" class="node">
<title>G</title>
<polygon fill="none" stroke="black" points="1489,-1126.58 1453,-1126.58 1453,-1096.58 1471,-1096.58 1471,-1102.58 1489,-1102.58 1489,-1096.58 1507,-1114.58 1489,-1132.58 1489,-1126.58"/>
<text text-anchor="middle" x="1480" y="-1110.88" font-family="Times,serif" font-size="14.00">G</text>
</g>
<!-- CG&#45;&gt;G -->
<g id="edge59" class="edge">
<title>CG&#45;&gt;G</title>
<path fill="none" stroke="black" d="M1452.9,-1168.27C1457,-1160.31 1461.95,-1150.68 1466.49,-1141.84"/>
<polygon fill="black" stroke="black" points="1469.74,-1143.18 1471.2,-1132.68 1463.52,-1139.97 1469.74,-1143.18"/>
</g>
<!-- IG -->
<g id="node20" class="node">
<title>IG</title>
<polygon fill="none" stroke="black" points="1525,-1198.58 1489,-1198.58 1489,-1168.58 1507,-1168.58 1507,-1174.58 1525,-1174.58 1525,-1168.58 1543,-1186.58 1525,-1204.58 1525,-1198.58"/>
<text text-anchor="middle" x="1516" y="-1182.88" font-family="Times,serif" font-size="14.00">IG</text>
</g>
<!-- IG&#45;&gt;G -->
<g id="edge60" class="edge">
<title>IG&#45;&gt;G</title>
<path fill="none" stroke="black" d="M1507.1,-1168.27C1503,-1160.31 1498.05,-1150.68 1493.51,-1141.84"/>
<polygon fill="black" stroke="black" points="1496.48,-1139.97 1488.8,-1132.68 1490.26,-1143.18 1496.48,-1139.97"/>
</g>
<!-- NI -->
<g id="node21" class="node">
<title>NI</title>
<polygon fill="none" stroke="black" points="836,-971.23 800,-971.23 800,-941.23 818,-941.23 818,-947.23 836,-947.23 836,-941.23 854,-959.23 836,-977.23 836,-971.23"/>
<text text-anchor="middle" x="827" y="-955.53" font-family="Times,serif" font-size="14.00">NI</text>
</g>
<!-- UR -->
<g id="node39" class="node">
<title>UR</title>
<ellipse fill="white" stroke="black" cx="844" cy="-864.53" rx="25.22" ry="25.22"/>
<ellipse fill="none" stroke="black" cx="844" cy="-864.53" rx="29.2" ry="29.2"/>
<text text-anchor="middle" x="844" y="-860.83" font-family="Times,serif" font-size="14.00">UR</text>
</g>
<!-- NI&#45;&gt;UR -->
<g id="edge52" class="edge">
<title>NI&#45;&gt;UR</title>
<path fill="none" stroke="black" d="M830.12,-941.23C832.04,-930.75 834.58,-916.88 836.97,-903.87"/>
<polygon fill="black" stroke="black" points="840.47,-904.18 838.83,-893.71 833.59,-902.92 840.47,-904.18"/>
</g>
<!-- WD -->
<g id="node22" class="node">
<title>WD</title>
<polygon fill="none" stroke="black" points="968,-322 932,-322 932,-292 950,-292 950,-298 968,-298 968,-292 986,-310 968,-328 968,-322"/>
<text text-anchor="middle" x="959" y="-306.3" font-family="Times,serif" font-size="14.00">WD</text>
</g>
<!-- WD&#45;&gt;X -->
<g id="edge13" class="edge">
<title>WD&#45;&gt;X</title>
<path fill="none" stroke="black" d="M959,-291.84C959,-283.06 959,-272.16 959,-262.27"/>
<polygon fill="black" stroke="black" points="962.5,-262.07 959,-252.07 955.5,-262.07 962.5,-262.07"/>
</g>
<!-- YCV -->
<g id="node23" class="node">
<title>YCV</title>
<polygon fill="none" stroke="black" points="1171,-1270.58 1135,-1270.58 1135,-1240.58 1153,-1240.58 1153,-1246.58 1171,-1246.58 1171,-1240.58 1189,-1258.58 1171,-1276.58 1171,-1270.58"/>
<text text-anchor="middle" x="1162" y="-1254.88" font-family="Times,serif" font-size="14.00">YCV</text>
</g>
<!-- TC -->
<g id="node31" class="node">
<title>TC</title>
<polygon fill="yellow" stroke="black" points="1171,-1198.58 1135,-1198.58 1135,-1168.58 1153,-1168.58 1153,-1174.58 1171,-1174.58 1171,-1168.58 1189,-1186.58 1171,-1204.58 1171,-1198.58"/>
<text text-anchor="middle" x="1162" y="-1182.88" font-family="Times,serif" font-size="14.00">TC</text>
</g>
<!-- YCV&#45;&gt;TC -->
<g id="edge62" class="edge">
<title>YCV&#45;&gt;TC</title>
<path fill="none" stroke="black" d="M1162,-1240.27C1162,-1232.56 1162,-1223.29 1162,-1214.69"/>
<polygon fill="black" stroke="black" points="1165.5,-1214.68 1162,-1204.68 1158.5,-1214.68 1165.5,-1214.68"/>
</g>
<!-- YD -->
<g id="node24" class="node">
<title>YD</title>
<polygon fill="none" stroke="black" points="148,-1198.58 112,-1198.58 112,-1168.58 130,-1168.58 130,-1174.58 148,-1174.58 148,-1168.58 166,-1186.58 148,-1204.58 148,-1198.58"/>
<text text-anchor="middle" x="139" y="-1182.88" font-family="Times,serif" font-size="14.00">YD</text>
</g>
<!-- YD&#45;&gt;C -->
<g id="edge2" class="edge">
<title>YD&#45;&gt;C</title>
<path fill="none" stroke="black" d="M127.63,-1168.27C122.28,-1160.14 115.8,-1150.27 109.89,-1141.28"/>
<polygon fill="black" stroke="black" points="112.66,-1139.12 104.24,-1132.68 106.81,-1142.96 112.66,-1139.12"/>
</g>
<!-- YD&#45;&gt;IH -->
<g id="edge11" class="edge">
<title>YD&#45;&gt;IH</title>
<path fill="none" stroke="black" d="M139.64,-1168.34C140.99,-1130.61 144,-1037.91 144,-960.23 144,-960.23 144,-960.23 144,-387.8 144,-343.98 148.56,-293.27 151.8,-262.69"/>
<polygon fill="black" stroke="black" points="155.32,-262.71 152.93,-252.39 148.36,-261.95 155.32,-262.71"/>
</g>
<!-- YW -->
<g id="node25" class="node">
<title>YW</title>
<polygon fill="none" stroke="black" points="1307,-971.23 1271,-971.23 1271,-941.23 1289,-941.23 1289,-947.23 1307,-947.23 1307,-941.23 1325,-959.23 1307,-977.23 1307,-971.23"/>
<text text-anchor="middle" x="1298" y="-955.53" font-family="Times,serif" font-size="14.00">YW</text>
</g>
<!-- SC -->
<g id="node27" class="node">
<title>SC</title>
<polygon fill="none" stroke="black" points="1307,-793.19 1271,-793.19 1271,-763.19 1289,-763.19 1289,-769.19 1307,-769.19 1307,-763.19 1325,-781.19 1307,-799.19 1307,-793.19"/>
<text text-anchor="middle" x="1298" y="-777.49" font-family="Times,serif" font-size="14.00">SC</text>
</g>
<!-- YW&#45;&gt;SC -->
<g id="edge65" class="edge">
<title>YW&#45;&gt;SC</title>
<path fill="none" stroke="black" d="M1298,-941.03C1298,-910.45 1298,-846.4 1298,-809.66"/>
<polygon fill="black" stroke="black" points="1301.5,-809.2 1298,-799.2 1294.5,-809.2 1301.5,-809.2"/>
</g>
<!-- TP -->
<g id="node30" class="node">
<title>TP</title>
<polygon fill="yellow" stroke="black" points="1379,-793.19 1343,-793.19 1343,-763.19 1361,-763.19 1361,-769.19 1379,-769.19 1379,-763.19 1397,-781.19 1379,-799.19 1379,-793.19"/>
<text text-anchor="middle" x="1370" y="-777.49" font-family="Times,serif" font-size="14.00">TP</text>
</g>
<!-- YW&#45;&gt;TP -->
<g id="edge61" class="edge">
<title>YW&#45;&gt;TP</title>
<path fill="none" stroke="black" d="M1305.03,-941.03C1317.65,-910.19 1344.19,-845.29 1359.15,-808.71"/>
<polygon fill="black" stroke="black" points="1362.5,-809.78 1363.04,-799.2 1356.02,-807.13 1362.5,-809.78"/>
</g>
<!-- YW&#45;&gt;UR -->
<g id="edge53" class="edge">
<title>YW&#45;&gt;UR</title>
<path fill="none" stroke="black" d="M1270.98,-954.31C1196.11,-943.33 987.1,-911.93 920,-893.88 906.8,-890.33 892.69,-885.4 880.25,-880.64"/>
<polygon fill="black" stroke="black" points="881.27,-877.28 870.68,-876.89 878.72,-883.8 881.27,-877.28"/>
</g>
<!-- G&#45;&gt;M -->
<g id="edge21" class="edge">
<title>G&#45;&gt;M</title>
<path fill="none" stroke="black" d="M1483.95,-1096.21C1490.03,-1067.89 1501,-1009.94 1501,-960.23 1501,-960.23 1501,-960.23 1501,-863.53 1501,-679.2 1481.54,-547.88 1175,-288 1078.04,-205.8 923.76,-176.53 853.3,-167.08"/>
<polygon fill="black" stroke="black" points="853.49,-163.57 843.13,-165.77 852.6,-170.52 853.49,-163.57"/>
</g>
<!-- G&#45;&gt;Y -->
<g id="edge29" class="edge">
<title>G&#45;&gt;Y</title>
<path fill="none" stroke="black" d="M1453,-1111.65C1315.73,-1101.86 695.69,-1057.61 536.4,-1046.25"/>
<polygon fill="black" stroke="black" points="536.38,-1042.74 526.16,-1045.52 535.88,-1049.72 536.38,-1042.74"/>
</g>
<!-- BG -->
<g id="node29" class="node">
<title>BG</title>
<polygon fill="none" stroke="black" points="1343,-721.19 1307,-721.19 1307,-691.19 1325,-691.19 1325,-697.19 1343,-697.19 1343,-691.19 1361,-709.19 1343,-727.19 1343,-721.19"/>
<text text-anchor="middle" x="1334" y="-705.49" font-family="Times,serif" font-size="14.00">BG</text>
</g>
<!-- G&#45;&gt;BG -->
<g id="edge68" class="edge">
<title>G&#45;&gt;BG</title>
<path fill="none" stroke="black" d="M1476.8,-1096.17C1471.88,-1067.8 1463,-1009.78 1463,-960.23 1463,-960.23 1463,-960.23 1463,-863.53 1463,-817.68 1467.44,-799.16 1439,-763.19 1422.01,-741.7 1393.99,-728.18 1371.17,-720.17"/>
<polygon fill="black" stroke="black" points="1372.03,-716.77 1361.43,-716.98 1369.84,-723.42 1372.03,-716.77"/>
</g>
<!-- SC&#45;&gt;BG -->
<g id="edge69" class="edge">
<title>SC&#45;&gt;BG</title>
<path fill="none" stroke="black" d="M1306.9,-762.88C1311,-754.92 1315.95,-745.29 1320.49,-736.45"/>
<polygon fill="black" stroke="black" points="1323.74,-737.78 1325.2,-727.29 1317.52,-734.58 1323.74,-737.78"/>
</g>
<!-- SB&#45;&gt;BG -->
<g id="edge70" class="edge">
<title>SB&#45;&gt;BG</title>
<path fill="none" stroke="black" d="M1133.05,-771.88C1173.93,-759.33 1251.54,-735.5 1297.42,-721.42"/>
<polygon fill="black" stroke="black" points="1298.45,-724.76 1306.99,-718.48 1296.4,-718.07 1298.45,-724.76"/>
</g>
<!-- TP&#45;&gt;BG -->
<g id="edge71" class="edge">
<title>TP&#45;&gt;BG</title>
<path fill="none" stroke="black" d="M1361.1,-762.88C1357,-754.92 1352.05,-745.29 1347.51,-736.45"/>
<polygon fill="black" stroke="black" points="1350.48,-734.58 1342.8,-727.29 1344.26,-737.78 1350.48,-734.58"/>
</g>
<!-- TC&#45;&gt;IP -->
<g id="edge6" class="edge">
<title>TC&#45;&gt;IP</title>
<path fill="none" stroke="black" d="M1134.96,-1181.71C1052.48,-1169.93 803.99,-1134.43 709.25,-1120.9"/>
<polygon fill="black" stroke="black" points="709.65,-1117.42 699.26,-1119.47 708.66,-1124.35 709.65,-1117.42"/>
</g>
<!-- TC&#45;&gt;BG -->
<g id="edge72" class="edge">
<title>TC&#45;&gt;BG</title>
<path fill="none" stroke="black" d="M1189.16,-1183.58C1256.35,-1177.02 1425,-1149.95 1425,-1043.58 1425,-1043.58 1425,-1043.58 1425,-863.53 1425,-818.14 1430.18,-801.6 1406,-763.19 1397.18,-749.18 1383.22,-737.64 1369.92,-728.95"/>
<polygon fill="black" stroke="black" points="1371.69,-725.93 1361.35,-723.65 1368.02,-731.89 1371.69,-725.93"/>
</g>
<!-- TI&#45;&gt;BG -->
<g id="edge73" class="edge">
<title>TI&#45;&gt;BG</title>
<path fill="none" stroke="black" d="M914.17,-766.28C917.1,-765.1 920.08,-764.04 923,-763.19 1056.93,-723.99 1223.85,-713.76 1296.88,-711.11"/>
<polygon fill="black" stroke="black" points="1297.09,-714.61 1306.96,-710.77 1296.85,-707.61 1297.09,-714.61"/>
</g>
<!-- W -->
<g id="node33" class="node">
<title>W</title>
<polygon fill="white" stroke="black" points="1055,-860.53 1049.65,-875.76 1028,-882.53 1006.35,-875.76 1001,-860.53 1015.98,-848.32 1040.02,-848.32 1055,-860.53"/>
<text text-anchor="middle" x="1028" y="-860.83" font-family="Times,serif" font-size="14.00">W</text>
</g>
<!-- W&#45;&gt;L_s -->
<g id="edge48" class="edge">
<title>W&#45;&gt;L_s</title>
<path fill="none" stroke="black" d="M1028.56,-848.23C1028.96,-837.37 1029.51,-822.5 1029.99,-809.61"/>
<polygon fill="black" stroke="black" points="1033.49,-809.51 1030.37,-799.39 1026.5,-809.25 1033.49,-809.51"/>
</g>
<!-- W&#45;&gt;SB -->
<g id="edge67" class="edge">
<title>W&#45;&gt;SB</title>
<path fill="none" stroke="black" d="M1041.59,-849.36C1052.86,-837.61 1069.14,-820.63 1082.51,-806.68"/>
<polygon fill="black" stroke="black" points="1085.2,-808.94 1089.6,-799.3 1080.15,-804.09 1085.2,-808.94"/>
</g>
<!-- i_s&#45;&gt;M_s -->
<g id="edge75" class="edge">
<title>i_s&#45;&gt;M_s</title>
<path fill="none" stroke="black" d="M642.45,-482.12C595.92,-514.46 478,-598.52 478,-619.64 478,-710.19 478,-710.19 478,-710.19 478,-790.81 489.15,-885.64 495.2,-931.17"/>
<polygon fill="black" stroke="black" points="491.74,-931.69 496.55,-941.13 498.68,-930.75 491.74,-931.69"/>
</g>
<!-- i_l -->
<g id="node35" class="node">
<title>i_l</title>
<ellipse fill="white" stroke="black" cx="627" cy="-388.8" rx="20.6" ry="20.6"/>
<text text-anchor="middle" x="627" y="-385.1" font-family="Times,serif" font-size="14.00">i_l</text>
</g>
<!-- i_s&#45;&gt;i_l -->
<g id="edge81" class="edge">
<title>i_s&#45;&gt;i_l</title>
<path fill="none" stroke="black" d="M652.07,-446.97C648.11,-437.95 643.4,-427.2 639.13,-417.47"/>
<polygon fill="black" stroke="black" points="642.28,-415.93 635.06,-408.18 635.87,-418.75 642.28,-415.93"/>
</g>
<!-- r -->
<g id="node36" class="node">
<title>r</title>
<ellipse fill="white" stroke="black" cx="423" cy="-310" rx="18" ry="18"/>
<text text-anchor="middle" x="423" y="-306.3" font-family="Times,serif" font-size="14.00">r</text>
</g>
<!-- i_l&#45;&gt;r -->
<g id="edge83" class="edge">
<title>i_l&#45;&gt;r</title>
<path fill="none" stroke="black" d="M607.81,-380.57C571.06,-366.74 490.74,-336.5 449.14,-320.84"/>
<polygon fill="black" stroke="black" points="450.28,-317.53 439.68,-317.28 447.81,-324.08 450.28,-317.53"/>
</g>
<!-- E -->
<g id="node37" class="node">
<title>E</title>
<ellipse fill="white" stroke="black" cx="816" cy="-310" rx="18" ry="18"/>
<ellipse fill="none" stroke="black" cx="816" cy="-310" rx="22" ry="22"/>
<text text-anchor="middle" x="816" y="-306.3" font-family="Times,serif" font-size="14.00">E</text>
</g>
<!-- i_l&#45;&gt;E -->
<g id="edge86" class="edge">
<title>i_l&#45;&gt;E</title>
<path fill="none" stroke="black" d="M646.16,-380.01C679.3,-366.55 747.5,-338.83 786.65,-322.93"/>
<polygon fill="black" stroke="black" points="787.99,-326.16 795.93,-319.15 785.35,-319.68 787.99,-326.16"/>
</g>
<!-- r&#45;&gt;IP -->
<g id="edge7" class="edge">
<title>r&#45;&gt;IP</title>
<path fill="none" stroke="black" d="M405.69,-315.28C356.6,-328.57 220,-373.93 220,-467.34 220,-960.23 220,-960.23 220,-960.23 220,-1047.54 526.28,-1095.02 634.6,-1109.08"/>
<polygon fill="black" stroke="black" points="634.38,-1112.58 644.74,-1110.37 635.27,-1105.64 634.38,-1112.58"/>
</g>
<!-- r&#45;&gt;IH -->
<g id="edge12" class="edge">
<title>r&#45;&gt;IH</title>
<path fill="none" stroke="black" d="M405.73,-304.87C368.85,-295.96 279.73,-273.95 206,-252 201.38,-250.62 196.55,-249.11 191.78,-247.57"/>
<polygon fill="black" stroke="black" points="192.75,-244.21 182.16,-244.42 190.57,-250.86 192.75,-244.21"/>
</g>
<!-- E&#45;&gt;X -->
<g id="edge14" class="edge">
<title>E&#45;&gt;X</title>
<path fill="none" stroke="black" d="M835.29,-299.02C857.68,-287.43 895.11,-268.06 922.94,-253.66"/>
<polygon fill="black" stroke="black" points="924.71,-256.69 931.98,-248.98 921.49,-250.47 924.71,-256.69"/>
</g>
<!-- E&#45;&gt;M -->
<g id="edge22" class="edge">
<title>E&#45;&gt;M</title>
<path fill="none" stroke="black" d="M816,-287.77C816,-262.08 816,-218.75 816,-190.52"/>
<polygon fill="black" stroke="black" points="819.5,-190.15 816,-180.15 812.5,-190.15 819.5,-190.15"/>
</g>
<!-- E&#45;&gt;BC -->
<g id="edge92" class="edge">
<title>E&#45;&gt;BC</title>
<path fill="none" stroke="black" d="M823.96,-289.27C839.82,-249.99 875.35,-161.97 893.26,-117.62"/>
<polygon fill="black" stroke="black" points="896.6,-118.68 897.1,-108.09 890.11,-116.05 896.6,-118.68"/>
</g>
<!-- CU -->
<g id="node38" class="node">
<title>CU</title>
<ellipse fill="white" stroke="black" cx="901" cy="-959.23" rx="25.22" ry="25.22"/>
<ellipse fill="none" stroke="black" cx="901" cy="-959.23" rx="29.2" ry="29.2"/>
<text text-anchor="middle" x="901" y="-955.53" font-family="Times,serif" font-size="14.00">CU</text>
</g>
<!-- CU&#45;&gt;UR -->
<g id="edge54" class="edge">
<title>CU&#45;&gt;UR</title>
<path fill="none" stroke="black" d="M886.02,-933.88C879.4,-923.1 871.51,-910.27 864.36,-898.65"/>
<polygon fill="black" stroke="black" points="867.29,-896.73 859.07,-890.05 861.33,-900.4 867.29,-896.73"/>
</g>
<!-- UR&#45;&gt;L_s -->
<g id="edge49" class="edge">
<title>UR&#45;&gt;L_s</title>
<path fill="none" stroke="black" d="M870.87,-852.45C899.39,-840.6 945.98,-821.03 994.79,-799.21"/>
<polygon fill="black" stroke="black" points="996.23,-802.4 1003.92,-795.11 993.37,-796.01 996.23,-802.4"/>
</g>
<!-- UR&#45;&gt;L_D -->
<g id="edge51" class="edge">
<title>UR&#45;&gt;L_D</title>
<path fill="none" stroke="black" d="M867.55,-846.88C884.53,-834.86 907.67,-818.5 926.42,-805.23"/>
<polygon fill="black" stroke="black" points="928.55,-808.02 934.69,-799.38 924.5,-802.3 928.55,-808.02"/>
</g>
<!-- GAP&#45;&gt;i_s -->
<g id="edge78" class="edge">
<title>GAP&#45;&gt;i_s</title>
<path fill="none" stroke="black" d="M626.44,-587.4C633.98,-561.62 644.5,-525.72 651.94,-500.29"/>
<polygon fill="black" stroke="black" points="655.38,-501.01 654.83,-490.43 648.66,-499.05 655.38,-501.01"/>
</g>
<!-- GAP&#45;&gt;P -->
<g id="edge38" class="edge">
<title>GAP&#45;&gt;P</title>
<path fill="none" stroke="black" d="M618.82,-655.52C621.55,-706.37 626.64,-800.93 628.88,-842.73"/>
<polygon fill="black" stroke="black" points="625.39,-843.03 629.42,-852.83 632.38,-842.66 625.39,-843.03"/>
</g>
<!-- GAP&#45;&gt;dP -->
<g id="edge39" class="edge">
<title>GAP&#45;&gt;dP</title>
<path fill="none" stroke="black" d="M585.4,-606.6C550.56,-592.22 494.65,-569.16 458.37,-554.19"/>
<polygon fill="black" stroke="black" points="459.27,-550.77 448.69,-550.19 456.6,-557.24 459.27,-550.77"/>
</g>
<!-- KPeq -->
<g id="node41" class="node">
<title>KPeq</title>
<polygon fill="white" stroke="black" points="627,-1198.08 573,-1198.08 573,-1195.52 570.44,-1195.52 570.44,-1192.97 573,-1192.97 573,-1180.19 570.44,-1180.19 570.44,-1177.63 573,-1177.63 573,-1175.08 627,-1175.08 627,-1198.08"/>
<polyline fill="none" stroke="black" points="573,-1195.52 575.56,-1195.52 575.56,-1192.97 573,-1192.97 "/>
<polyline fill="none" stroke="black" points="573,-1180.19 575.56,-1180.19 575.56,-1177.63 573,-1177.63 "/>
<text text-anchor="middle" x="600" y="-1182.88" font-family="Times,serif" font-size="14.00">KPeq</text>
</g>
<!-- KPeq&#45;&gt;IP -->
<g id="edge8" class="edge">
<title>KPeq&#45;&gt;IP</title>
<path fill="none" stroke="black" d="M610.94,-1174.95C620.51,-1165.63 634.79,-1151.75 647.13,-1139.76"/>
<polygon fill="black" stroke="black" points="649.78,-1142.07 654.51,-1132.59 644.9,-1137.05 649.78,-1142.07"/>
</g>
<!-- P&#45;&gt;M_s -->
<g id="edge76" class="edge">
<title>P&#45;&gt;M_s</title>
<path fill="none" stroke="black" d="M620.07,-876.12C603.49,-888.59 571.02,-910.13 544,-929.88 540.84,-932.19 537.56,-934.66 534.27,-937.15"/>
<polygon fill="black" stroke="black" points="532.01,-934.47 526.1,-943.26 536.2,-940.07 532.01,-934.47"/>
</g>
<!-- P&#45;&gt;X -->
<g id="edge15" class="edge">
<title>P&#45;&gt;X</title>
<path fill="none" stroke="black" d="M656.16,-853.02C715.09,-828.8 855.42,-768.06 885,-727.19 912.94,-688.57 904,-669.3 904,-621.64 904,-621.64 904,-621.64 904,-387.8 904,-342.65 905.73,-329.72 923,-288 926.98,-278.39 932.85,-268.73 938.71,-260.33"/>
<polygon fill="black" stroke="black" points="941.65,-262.24 944.72,-252.1 936,-258.11 941.65,-262.24"/>
</g>
<!-- P&#45;&gt;L_s -->
<g id="edge50" class="edge">
<title>P&#45;&gt;L_s</title>
<path fill="none" stroke="black" d="M657.15,-859.18C731.27,-847.23 934.96,-813.99 993.99,-798.75"/>
<polygon fill="black" stroke="black" points="995.13,-802.07 1003.79,-795.96 993.21,-795.33 995.13,-802.07"/>
</g>
<!-- P&#45;&gt;BC -->
<g id="edge93" class="edge">
<title>P&#45;&gt;BC</title>
<path fill="none" stroke="black" d="M635.75,-852.92C642.29,-840.41 652.86,-818.83 659,-799.19 703.18,-657.87 687.51,-259.61 780,-144 801.36,-117.3 838.71,-103.81 866.86,-97.15"/>
<polygon fill="black" stroke="black" points="867.73,-100.55 876.76,-95 866.24,-93.71 867.73,-100.55"/>
</g>
<!-- P&#45;&gt;TI -->
<g id="edge64" class="edge">
<title>P&#45;&gt;TI</title>
<path fill="none" stroke="black" d="M657.23,-856.4C698.47,-845.37 779.08,-822.96 846,-799.19 847.41,-798.69 848.84,-798.17 850.27,-797.63"/>
<polygon fill="black" stroke="black" points="851.75,-800.81 859.81,-793.92 849.22,-794.28 851.75,-800.81"/>
</g>
<!-- P&#45;&gt;i_s -->
<g id="edge79" class="edge">
<title>P&#45;&gt;i_s</title>
<path fill="none" stroke="black" d="M632.18,-852.75C638.27,-822.04 655.36,-731.41 661,-655.19 664.99,-601.3 663.76,-538.39 662.43,-501.32"/>
<polygon fill="black" stroke="black" points="665.92,-500.99 662.04,-491.13 658.93,-501.25 665.92,-500.99"/>
</g>
<!-- P&#45;&gt;r -->
<g id="edge84" class="edge">
<title>P&#45;&gt;r</title>
<path fill="none" stroke="black" d="M626.05,-852.99C601.49,-787.43 469.51,-435.14 432.6,-336.62"/>
<polygon fill="black" stroke="black" points="435.83,-335.27 429.04,-327.13 429.27,-337.72 435.83,-335.27"/>
</g>
<!-- P&#45;&gt;E -->
<g id="edge87" class="edge">
<title>P&#45;&gt;E</title>
<path fill="none" stroke="black" d="M657.14,-853.8C680.81,-843.83 714.08,-825.99 732,-799.19 757.65,-760.82 799.34,-443.57 812.14,-342.09"/>
<polygon fill="black" stroke="black" points="815.62,-342.5 813.39,-332.15 808.67,-341.63 815.62,-342.5"/>
</g>
<!-- P_ex -->
<g id="node43" class="node">
<title>P_ex</title>
<polygon fill="white" stroke="black" points="1014,-400.3 960,-400.3 960,-397.74 957.44,-397.74 957.44,-395.19 960,-395.19 960,-382.41 957.44,-382.41 957.44,-379.85 960,-379.85 960,-377.3 1014,-377.3 1014,-400.3"/>
<polyline fill="none" stroke="black" points="960,-397.74 962.56,-397.74 962.56,-395.19 960,-395.19 "/>
<polyline fill="none" stroke="black" points="960,-382.41 962.56,-382.41 962.56,-379.85 960,-379.85 "/>
<text text-anchor="middle" x="987" y="-385.1" font-family="Times,serif" font-size="14.00">P_ex</text>
</g>
<!-- P_ex&#45;&gt;X -->
<g id="edge16" class="edge">
<title>P_ex&#45;&gt;X</title>
<path fill="none" stroke="black" d="M990.43,-377.03C995.79,-358.41 1004.6,-319.23 995,-288 991.99,-278.22 986.49,-268.62 980.68,-260.33"/>
<polygon fill="black" stroke="black" points="983.41,-258.13 974.61,-252.23 977.81,-262.33 983.41,-258.13"/>
</g>
<!-- P_ex&#45;&gt;M -->
<g id="edge23" class="edge">
<title>P_ex&#45;&gt;M</title>
<path fill="none" stroke="black" d="M972.45,-377.1C958.73,-366.57 938.07,-349.56 923,-332 883.42,-285.87 847.94,-223.81 829.46,-189.17"/>
<polygon fill="black" stroke="black" points="832.47,-187.38 824.71,-180.17 826.28,-190.64 832.47,-187.38"/>
</g>
<!-- P_ex&#45;&gt;BC -->
<g id="edge94" class="edge">
<title>P_ex&#45;&gt;BC</title>
<path fill="none" stroke="black" d="M993.16,-377.12C999.07,-366.19 1007.6,-348.53 1011,-332 1021.5,-281.03 1015.88,-263.67 995,-216 978.16,-177.56 947.96,-139.46 926.99,-115.61"/>
<polygon fill="black" stroke="black" points="929.54,-113.21 920.26,-108.09 924.32,-117.88 929.54,-113.21"/>
</g>
<!-- P_ex&#45;&gt;E -->
<g id="edge88" class="edge">
<title>P_ex&#45;&gt;E</title>
<path fill="none" stroke="black" d="M959.88,-377.84C932.28,-367.41 888.47,-350.07 852,-332 849.17,-330.6 846.27,-329.07 843.39,-327.49"/>
<polygon fill="black" stroke="black" points="844.84,-324.29 834.42,-322.39 841.38,-330.38 844.84,-324.29"/>
</g>
<!-- dP_1 -->
<g id="node44" class="node">
<title>dP_1</title>
<polygon fill="white" stroke="black" points="598,-970.73 544,-970.73 544,-968.17 541.44,-968.17 541.44,-965.62 544,-965.62 544,-952.84 541.44,-952.84 541.44,-950.29 544,-950.29 544,-947.73 598,-947.73 598,-970.73"/>
<polyline fill="none" stroke="black" points="544,-968.17 546.56,-968.17 546.56,-965.62 544,-965.62 "/>
<polyline fill="none" stroke="black" points="544,-952.84 546.56,-952.84 546.56,-950.29 544,-950.29 "/>
<text text-anchor="middle" x="571" y="-955.53" font-family="Times,serif" font-size="14.00">dP_1</text>
</g>
<!-- dP_1&#45;&gt;P -->
<g id="edge40" class="edge">
<title>dP_1&#45;&gt;P</title>
<path fill="none" stroke="black" d="M577.77,-947.6C587.55,-932.23 605.79,-903.58 617.91,-884.52"/>
<polygon fill="black" stroke="black" points="620.89,-886.36 623.31,-876.04 614.99,-882.6 620.89,-886.36"/>
</g>
<!-- dP_1&#45;&gt;dP -->
<g id="edge41" class="edge">
<title>dP_1&#45;&gt;dP</title>
<path fill="none" stroke="black" d="M568.03,-947.68C555.34,-903.09 503.76,-725.94 446,-586.09 442.28,-577.1 437.61,-567.41 433.44,-559.22"/>
<polygon fill="black" stroke="black" points="436.43,-557.38 428.72,-550.12 430.22,-560.6 436.43,-557.38"/>
</g>
<!-- P_1 -->
<g id="node45" class="node">
<title>P_1</title>
<polygon fill="white" stroke="black" points="454,-970.73 400,-970.73 400,-968.17 397.44,-968.17 397.44,-965.62 400,-965.62 400,-952.84 397.44,-952.84 397.44,-950.29 400,-950.29 400,-947.73 454,-947.73 454,-970.73"/>
<polyline fill="none" stroke="black" points="400,-968.17 402.56,-968.17 402.56,-965.62 400,-965.62 "/>
<polyline fill="none" stroke="black" points="400,-952.84 402.56,-952.84 402.56,-950.29 400,-950.29 "/>
<text text-anchor="middle" x="427" y="-955.53" font-family="Times,serif" font-size="14.00">P_1</text>
</g>
<!-- P_1&#45;&gt;P -->
<g id="edge42" class="edge">
<title>P_1&#45;&gt;P</title>
<path fill="none" stroke="black" d="M438.68,-947.56C445.43,-941.78 454.29,-934.84 463,-929.88 505.27,-905.82 558.29,-887.13 593.11,-876.23"/>
<polygon fill="black" stroke="black" points="594.33,-879.52 602.86,-873.23 592.27,-872.83 594.33,-879.52"/>
</g>
<!-- P_1&#45;&gt;dP -->
<g id="edge43" class="edge">
<title>P_1&#45;&gt;dP</title>
<path fill="none" stroke="black" d="M426.9,-947.46C426.36,-891.71 423.92,-635.55 423.2,-560.38"/>
<polygon fill="black" stroke="black" points="426.7,-560.26 423.1,-550.29 419.7,-560.32 426.7,-560.26"/>
</g>
<!-- dP&#45;&gt;i_s -->
<g id="edge80" class="edge">
<title>dP&#45;&gt;i_s</title>
<path fill="none" stroke="black" d="M450.31,-530.45C454.88,-529.3 459.57,-528.14 464,-527.09 537.03,-509.78 560.04,-520.73 629,-491.09 630.85,-490.3 632.71,-489.39 634.54,-488.41"/>
<polygon fill="black" stroke="black" points="636.67,-491.21 643.42,-483.04 633.05,-485.22 636.67,-491.21"/>
</g>
<!-- dP&#45;&gt;r -->
<g id="edge85" class="edge">
<title>dP&#45;&gt;r</title>
<path fill="none" stroke="black" d="M423,-526.97C423,-493.3 423,-388.27 423,-338.14"/>
<polygon fill="black" stroke="black" points="426.5,-338.05 423,-328.05 419.5,-338.05 426.5,-338.05"/>
</g>
<!-- UR_1 -->
<g id="node47" class="node">
<title>UR_1</title>
<polygon fill="white" stroke="black" points="1003.5,-970.73 948.5,-970.73 948.5,-968.17 945.94,-968.17 945.94,-965.62 948.5,-965.62 948.5,-952.84 945.94,-952.84 945.94,-950.29 948.5,-950.29 948.5,-947.73 1003.5,-947.73 1003.5,-970.73"/>
<polyline fill="none" stroke="black" points="948.5,-968.17 951.06,-968.17 951.06,-965.62 948.5,-965.62 "/>
<polyline fill="none" stroke="black" points="948.5,-952.84 951.06,-952.84 951.06,-950.29 948.5,-950.29 "/>
<text text-anchor="middle" x="976" y="-955.53" font-family="Times,serif" font-size="14.00">UR_1</text>
</g>
<!-- UR_1&#45;&gt;UR -->
<g id="edge55" class="edge">
<title>UR_1&#45;&gt;UR</title>
<path fill="none" stroke="black" d="M962.44,-947.54C955.5,-942.14 946.88,-935.56 939,-929.88 918.63,-915.2 895.29,-899.38 876.84,-887.1"/>
<polygon fill="black" stroke="black" points="878.75,-884.16 868.48,-881.55 874.88,-889.99 878.75,-884.16"/>
</g>
<!-- UR_1_eq -->
<g id="node48" class="node">
<title>UR_1_eq</title>
<polygon fill="white" stroke="black" points="1100.5,-970.73 1021.5,-970.73 1021.5,-968.17 1018.94,-968.17 1018.94,-965.62 1021.5,-965.62 1021.5,-952.84 1018.94,-952.84 1018.94,-950.29 1021.5,-950.29 1021.5,-947.73 1100.5,-947.73 1100.5,-970.73"/>
<polyline fill="none" stroke="black" points="1021.5,-968.17 1024.06,-968.17 1024.06,-965.62 1021.5,-965.62 "/>
<polyline fill="none" stroke="black" points="1021.5,-952.84 1024.06,-952.84 1024.06,-950.29 1021.5,-950.29 "/>
<text text-anchor="middle" x="1061" y="-955.53" font-family="Times,serif" font-size="14.00">UR_1_eq</text>
</g>
<!-- UR_1_eq&#45;&gt;UR -->
<g id="edge56" class="edge">
<title>UR_1_eq&#45;&gt;UR</title>
<path fill="none" stroke="black" d="M1045.54,-947.72C1036.38,-941.86 1024.38,-934.77 1013,-929.88 959.49,-906.89 939.92,-918.19 887,-893.88 883.36,-892.21 879.67,-890.25 876.07,-888.16"/>
<polygon fill="black" stroke="black" points="877.7,-885.06 867.36,-882.78 874.02,-891.01 877.7,-885.06"/>
</g>
<!-- YWeq -->
<g id="node49" class="node">
<title>YWeq</title>
<polygon fill="white" stroke="black" points="710,-970.73 654,-970.73 654,-968.17 651.44,-968.17 651.44,-965.62 654,-965.62 654,-952.84 651.44,-952.84 651.44,-950.29 654,-950.29 654,-947.73 710,-947.73 710,-970.73"/>
<polyline fill="none" stroke="black" points="654,-968.17 656.56,-968.17 656.56,-965.62 654,-965.62 "/>
<polyline fill="none" stroke="black" points="654,-952.84 656.56,-952.84 656.56,-950.29 654,-950.29 "/>
<text text-anchor="middle" x="682" y="-955.53" font-family="Times,serif" font-size="14.00">YWeq</text>
</g>
<!-- YWeq&#45;&gt;UR -->
<g id="edge57" class="edge">
<title>YWeq&#45;&gt;UR</title>
<path fill="none" stroke="black" d="M694.61,-947.67C701.58,-942.07 710.52,-935.25 719,-929.88 747.89,-911.59 782.6,-894.04 808.1,-881.91"/>
<polygon fill="black" stroke="black" points="809.84,-884.96 817.39,-877.53 806.86,-878.63 809.84,-884.96"/>
</g>
<!-- NIeq -->
<g id="node50" class="node">
<title>NIeq</title>
<polygon fill="white" stroke="black" points="782,-970.73 728,-970.73 728,-968.17 725.44,-968.17 725.44,-965.62 728,-965.62 728,-952.84 725.44,-952.84 725.44,-950.29 728,-950.29 728,-947.73 782,-947.73 782,-970.73"/>
<polyline fill="none" stroke="black" points="728,-968.17 730.56,-968.17 730.56,-965.62 728,-965.62 "/>
<polyline fill="none" stroke="black" points="728,-952.84 730.56,-952.84 730.56,-950.29 728,-950.29 "/>
<text text-anchor="middle" x="755" y="-955.53" font-family="Times,serif" font-size="14.00">NIeq</text>
</g>
<!-- NIeq&#45;&gt;UR -->
<g id="edge58" class="edge">
<title>NIeq&#45;&gt;UR</title>
<path fill="none" stroke="black" d="M765.21,-947.6C777.67,-934.61 799.25,-912.15 816.67,-894"/>
<polygon fill="black" stroke="black" points="819.45,-896.16 823.85,-886.53 814.4,-891.31 819.45,-896.16"/>
</g>
<!-- lag -->
<g id="node51" class="node">
<title>lag</title>
<polygon fill="white" stroke="black" points="620,-479.84 566,-479.84 566,-477.29 563.44,-477.29 563.44,-474.73 566,-474.73 566,-461.96 563.44,-461.96 563.44,-459.4 566,-459.4 566,-456.84 620,-456.84 620,-479.84"/>
<polyline fill="none" stroke="black" points="566,-477.29 568.56,-477.29 568.56,-474.73 566,-474.73 "/>
<polyline fill="none" stroke="black" points="566,-461.96 568.56,-461.96 568.56,-459.4 566,-459.4 "/>
<text text-anchor="middle" x="593" y="-464.64" font-family="Times,serif" font-size="14.00">lag</text>
</g>
<!-- lag&#45;&gt;i_l -->
<g id="edge82" class="edge">
<title>lag&#45;&gt;i_l</title>
<path fill="none" stroke="black" d="M597.73,-456.56C602.13,-446.52 608.89,-431.1 614.8,-417.61"/>
<polygon fill="black" stroke="black" points="618.11,-418.8 618.92,-408.24 611.69,-415.99 618.11,-418.8"/>
</g>
<!-- i_l_ex -->
<g id="node52" class="node">
<title>i_l_ex</title>
<polygon fill="white" stroke="black" points="876,-400.3 820,-400.3 820,-397.74 817.44,-397.74 817.44,-395.19 820,-395.19 820,-382.41 817.44,-382.41 817.44,-379.85 820,-379.85 820,-377.3 876,-377.3 876,-400.3"/>
<polyline fill="none" stroke="black" points="820,-397.74 822.56,-397.74 822.56,-395.19 820,-395.19 "/>
<polyline fill="none" stroke="black" points="820,-382.41 822.56,-382.41 822.56,-379.85 820,-379.85 "/>
<text text-anchor="middle" x="848" y="-385.1" font-family="Times,serif" font-size="14.00">i_l_ex</text>
</g>
<!-- i_l_ex&#45;&gt;E -->
<g id="edge89" class="edge">
<title>i_l_ex&#45;&gt;E</title>
<path fill="none" stroke="black" d="M843.55,-377.12C839.55,-367.53 833.5,-353 828.08,-340"/>
<polygon fill="black" stroke="black" points="831.19,-338.35 824.11,-330.47 824.73,-341.04 831.19,-338.35"/>
</g>
</g>
</svg>
